# xmcd CD database file
#
# Track frame offsets:
#	150
#	21112
#	36431
#	56730
#	73689
#	97764
#	111861
#	127674
#	143799
#	159961
#	173793
#	189135
#	207627
#	225008
#	245436
#
# Disc length: 3553 seconds
#
# Revision: 0
# Processed by: cddbd v1.5.2PL0 Copyright (c) Steve Scherf et al.
# Submitted via: CDex 1.97
#
DISCID=bc0ddf0f
DTITLE=Scott Bradlee's Postmodern Jukebox - Jazz Me Outside Pt.1
DYEAR=2018
DGENRE=Jazz
TTITLE0=01 - Perfect Duet
TTITLE1=02 - Who Can it be now
TTITLE2=03 - Crazy
TTITLE3=04 - Thats what I like
TTITLE4=05 - Smells like teen spirit
TTITLE5=06 - Straight up
TTITLE6=07 -  Tomorrow
TTITLE7=08 -  New rules
TTITLE8=09 - The prayer
TTITLE9=10 -  Alone
TTITLE10=11 - Gimmie chocolate
TTITLE11=12 - Dont stop
TTITLE12=13 - The final countdown
TTITLE13=14 - LAST FRIDAY NIGHT
TTITLE14=15 - My hero
EXTD=YEAR: 2018
EXTT0=
EXTT1=
EXTT2=
EXTT3=
EXTT4=
EXTT5=
EXTT6=
EXTT7=
EXTT8=
EXTT9=
EXTT10=
EXTT11=
EXTT12=
EXTT13=
EXTT14=
PLAYORDER=
